<svg xmlns="http://www.w3.org/2000/svg" xmlns:xlink="http://www.w3.org/1999/xlink" version="1.1" x="0px" y="0px" viewBox="0 0 100 100" enable-background="new 0 0 100 100" xml:space="preserve"><polygon points="15.308,50.57 15.308,51.721 20.237,51.721 21.866,48.899 16.626,48.899 11.508,45.967 10.868,46.2 5.755,45.628   5.755,47.14 10.455,47.796 "></polygon><polygon points="18.101,77.771 18.101,78.667 13.104,81.771 8.612,81.771 8.612,83.362 13.504,83.362 13.911,83.681 19.067,80.334   26.013,80.334 24.536,77.771 "></polygon><polygon points="25.592,23.647 24.939,24.493 31.577,32.02 32.251,30.851 34.563,30.548 28.099,23.386 25.989,16.759 25.402,16.74   21.964,12.337 20.558,13.53 24.05,17.818 "></polygon><polygon points="89.132,46.2 88.492,45.967 83.373,48.899 78.133,48.899 79.762,51.721 84.691,51.721 84.691,50.57 89.545,47.796   94.245,47.14 94.245,45.628 "></polygon><polygon points="81.899,78.667 81.899,77.771 75.464,77.771 73.986,80.334 80.933,80.334 86.089,83.681 86.496,83.362   91.387,83.362 91.387,81.771 86.896,81.771 "></polygon><polygon points="63.727,24.063 57.676,20.536 53.212,14.646 55.715,12.27 55.884,10.077 57.187,8.511 56.587,7.947 55.091,9.722   54.699,11.697 52.087,14.366 49.995,14.366 49.972,14.366 47.879,14.366 45.266,11.697 44.875,9.722 43.38,7.947 42.778,8.511   44.082,10.077 44.25,12.27 46.753,14.646 42.291,20.536 36.24,24.063 36.24,30.173 49.983,28.531 63.727,30.173 "></polygon><polygon points="68.423,32.02 75.061,24.493 74.407,23.647 75.95,17.818 79.441,13.53 78.036,12.337 74.597,16.74 74.01,16.759   71.901,23.386 65.436,30.548 67.748,30.851 "></polygon><path d="M66.915,32.098L50,29.885l-16.916,2.212L16.411,60.983l16.823,29.184l13.929,1.875L50,72.63l2.759,19.423l14.006-1.886  l16.824-29.184L66.915,32.098z M54.095,33.834h1.981l0.992,1.716l-0.992,1.717h-1.981l-0.992-1.717L54.095,33.834z M43.924,33.834  h1.982l0.991,1.716l-0.991,1.717h-1.982l-0.992-1.717L43.924,33.834z M22.813,57.39l1.838-3.185h3.678l1.838,3.185l-1.838,3.184  h-3.678L22.813,57.39z M27.61,66.905l1.328-2.299h2.655l1.327,2.299l-1.327,2.299h-2.655L27.61,66.905z M39.113,83.251h-6.198  l-3.1-5.368l3.1-5.368h6.198l3.099,5.368L39.113,83.251z M44.648,88.293h-2.332l-1.166-2.019l1.166-2.02h2.332l1.165,2.02  L44.648,88.293z M45.141,68.224h-4.505l-2.252-3.9l2.252-3.901h4.505l2.251,3.901L45.141,68.224z M43.266,55.451h-8.817l-4.41-7.637  l4.41-7.637h8.817l4.41,7.637L43.266,55.451z M56.732,40.178h8.818l4.409,7.637l-4.409,7.637h-8.818l-4.408-7.637L56.732,40.178z   M54.859,60.422h4.505l2.251,3.901l-2.251,3.9h-4.505l-2.251-3.9L54.859,60.422z M57.683,88.293h-2.331l-1.165-2.019l1.165-2.02  h2.331l1.166,2.02L57.683,88.293z M67.086,83.251h-6.2l-3.099-5.368l3.099-5.368h6.2l3.099,5.368L67.086,83.251z M71.061,69.204  h-2.654l-1.326-2.299l1.326-2.299h2.654l1.328,2.299L71.061,69.204z M71.672,60.573l-1.838-3.184l1.838-3.185h3.677l1.838,3.185  l-1.838,3.184H71.672z"></path></svg>