<svg xmlns="http://www.w3.org/2000/svg" xmlns:xlink="http://www.w3.org/1999/xlink" version="1.1" x="0px" y="0px" viewBox="0 0 100 100" enable-background="new 0 0 100 100" xml:space="preserve"><path fill="#000000" d="M95.03,11.672c-0.004-1.126-0.958-2.037-2.081-2.037c-2.473,0-24.362,0.217-31.822,7.711  c-2.882,2.892-4.014,5.593-4.047,8.14c-2.256-0.515-4.597-0.811-7.008-0.811s-4.75,0.295-7.008,0.811  c-0.034-2.547-1.163-5.248-4.046-8.14C31.555,9.85,9.667,9.633,7.144,9.633c-1.119,0.004-2.023,0.914-2.028,2.037  c-0.004,0.988-0.009,24.287,7.68,32.003c2.273,2.285,4.531,3.579,6.857,3.957c-0.818,2.82-1.278,5.791-1.278,8.869  c0,0.345,0.087,0.684,0.251,0.985c1.843,3.367,18.371,32.882,31.447,32.882s29.605-29.515,31.446-32.882  c0.166-0.302,0.253-0.641,0.253-0.985c0-3.08-0.463-6.049-1.276-8.869c2.322-0.378,4.579-1.674,6.853-3.957  C95.035,35.957,95.035,12.66,95.03,11.672z M65.812,49.932v6.289c0,1.129-0.91,2.044-2.035,2.044c-1.126,0-2.038-0.915-2.038-2.044  v-6.289c0-1.129,0.912-2.044,2.038-2.044C64.901,47.887,65.812,48.803,65.812,49.932z M34.331,49.932  c0-1.129,0.913-2.044,2.037-2.044c1.125,0,2.036,0.916,2.036,2.044v6.289c0,1.129-0.911,2.044-2.036,2.044  c-1.124,0-2.037-0.915-2.037-2.044V49.932z M21.086,43.672c-1.705,0-3.474-0.945-5.411-2.89c-4.876-4.896-6.258-19.637-6.459-27.031  c0,0,0,0,0,0l19.355,19.433c-3.154,2.935-5.721,6.488-7.484,10.488H21.086z M50.072,86.277c-8.013,0-20.007-17.394-25.906-27.324  c9.089,1.45,16.877,6.743,21.702,14.168c-1.729,1.067-2.863,2.759-2.863,4.684c0,3.235,7.067,5.495,7.067,5.495  s7.069-2.26,7.069-5.495c0-1.925-1.136-3.617-2.862-4.684c4.825-7.425,12.613-12.718,21.701-14.168  C70.083,68.884,58.084,86.277,50.072,86.277z M79.058,43.672c-1.765-4-4.33-7.554-7.486-10.489l19.358-19.43  c-0.202,7.395-1.583,22.134-6.462,27.029C82.533,42.727,80.762,43.672,79.058,43.672z"></path></svg>