<svg xmlns="http://www.w3.org/2000/svg" xmlns:xlink="http://www.w3.org/1999/xlink" version="1.1" x="0px" y="0px" viewBox="0 0 100 100" enable-background="new 0 0 100 100" xml:space="preserve"><g display="none"><g display="inline"><path fill="#000000" stroke="#231F20" stroke-width="3.3661" stroke-linecap="round" stroke-linejoin="round" stroke-miterlimit="10" d="    M16.582,91.049c1.941,1.51,4.738,1.162,6.25-0.777l11.483-14.747l-7.027-5.472L15.804,84.801    C14.294,86.739,14.642,89.538,16.582,91.049z"></path><path fill="#000000" stroke="#231F20" stroke-width="3.3661" stroke-linecap="round" stroke-linejoin="round" stroke-miterlimit="10" d="    M45.486,49.047l15.056-19.334c1.767-2.269,1.36-5.541-0.909-7.309c-2.27-1.767-5.541-1.359-7.309,0.909l-8.328,10.696"></path><path fill="#000000" stroke="#231F20" stroke-width="3.3661" stroke-linecap="round" stroke-linejoin="round" stroke-miterlimit="10" d="    M61.189,55.598l12.303-15.799c1.768-2.269,1.36-5.541-0.908-7.307c-2.27-1.768-5.541-1.361-7.308,0.908L53.889,48.021"></path><line fill="#000000" stroke="#231F20" stroke-width="3.3661" stroke-linecap="round" stroke-linejoin="round" stroke-miterlimit="10" x1="39.711" y1="39.513" x2="37.137" y2="42.818"></line><line fill="#000000" stroke="#231F20" stroke-width="3.3661" stroke-linecap="round" stroke-linejoin="round" stroke-miterlimit="10" x1="57.922" y1="59.795" x2="56.635" y2="61.447"></line><line fill="#000000" stroke="#231F20" stroke-width="3.3661" stroke-linecap="round" stroke-linejoin="round" stroke-miterlimit="10" x1="50.425" y1="52.472" x2="49.782" y2="53.299"></line><line fill="#000000" stroke="#231F20" stroke-width="3.3661" stroke-linecap="round" stroke-linejoin="round" stroke-miterlimit="10" x1="41.957" y1="53.578" x2="41.313" y2="54.405"></line><path fill="#000000" stroke="#231F20" stroke-width="3.3661" stroke-linecap="round" stroke-linejoin="round" stroke-miterlimit="10" d="    M81.364,42.38l0.096-0.124c7.197-9.242,5.539-22.569-3.703-29.768c-9.243-7.198-22.571-5.539-29.77,3.704L14.064,59.758    l33.473,26.063l25.649-32.938c2.451-3.148-0.164,9.922-0.164,9.922s-0.904,5.299,2.973,5.299s3.359-5.299,3.359-5.299V49.753    C79.354,45.358,80.956,42.928,81.364,42.38z"></path><circle fill="#000000" stroke="#231F20" stroke-width="3.3661" stroke-linecap="round" stroke-linejoin="round" stroke-miterlimit="10" cx="75.555" cy="77.808" r="3.33"></circle></g></g><g><path fill="#000000" d="M60.667,21.077c-3-2.334-7.336-1.793-9.671,1.203l-8.328,10.696c-0.571,0.734-0.439,1.791,0.294,2.362   c0.734,0.571,1.791,0.439,2.362-0.294l8.327-10.695c1.194-1.533,3.415-1.808,4.947-0.616c1.533,1.194,1.81,3.414,0.615,4.947   L44.158,48.013c-0.571,0.733-0.439,1.791,0.294,2.362c0.308,0.239,0.671,0.355,1.033,0.355c0.501,0,0.997-0.223,1.329-0.649   L61.87,30.748C64.204,27.75,63.664,23.412,60.667,21.077z"></path><path fill="#000000" d="M73.618,31.164c-1.452-1.132-3.261-1.63-5.084-1.402c-1.827,0.227-3.455,1.152-4.586,2.604L52.561,46.987   c-0.571,0.733-0.439,1.791,0.294,2.362c0.734,0.572,1.791,0.44,2.362-0.293l11.388-14.623c0.578-0.743,1.411-1.216,2.345-1.332   c0.934-0.116,1.857,0.139,2.601,0.718c0.743,0.578,1.216,1.411,1.332,2.345s-0.139,1.857-0.718,2.6L59.861,54.563   c-0.571,0.733-0.439,1.791,0.294,2.362c0.308,0.239,0.672,0.355,1.033,0.355c0.501,0,0.997-0.224,1.329-0.649l12.302-15.799   c1.132-1.452,1.63-3.258,1.402-5.084C75.995,33.922,75.07,32.293,73.618,31.164z"></path><path fill="#000000" d="M40.745,38.185c-0.732-0.569-1.79-0.438-2.362,0.294l-2.574,3.306c-0.571,0.733-0.439,1.791,0.294,2.362   c0.308,0.239,0.671,0.355,1.033,0.355c0.501,0,0.997-0.223,1.329-0.649l2.574-3.306C41.61,39.813,41.479,38.756,40.745,38.185z"></path><path fill="#000000" d="M58.956,58.467c-0.733-0.57-1.79-0.438-2.362,0.294l-1.287,1.652c-0.571,0.733-0.439,1.791,0.294,2.362   c0.308,0.239,0.672,0.355,1.033,0.355c0.501,0,0.997-0.224,1.329-0.649l1.287-1.652C59.821,60.096,59.689,59.038,58.956,58.467z"></path><path fill="#000000" d="M51.459,51.144c-0.734-0.571-1.792-0.439-2.362,0.295l-0.644,0.827c-0.571,0.733-0.439,1.791,0.294,2.361   c0.308,0.239,0.671,0.355,1.033,0.355c0.501,0,0.998-0.224,1.33-0.65l0.644-0.827C52.324,52.771,52.192,51.714,51.459,51.144z"></path><path fill="#000000" d="M42.991,52.25c-0.734-0.571-1.792-0.439-2.362,0.295l-0.644,0.827c-0.571,0.733-0.439,1.791,0.294,2.361   c0.308,0.239,0.671,0.355,1.033,0.355c0.501,0,0.998-0.224,1.329-0.65l0.644-0.827C43.856,53.878,43.724,52.82,42.991,52.25z"></path><path fill="#000000" d="M78.791,11.161C74.731,8,69.873,6.329,64.739,6.329c-7.12,0-13.71,3.218-18.08,8.83L12.736,58.724   c-0.274,0.353-0.397,0.799-0.342,1.242c0.055,0.442,0.284,0.846,0.636,1.12l11.894,9.262L14.476,83.767   c-1.007,1.292-1.45,2.899-1.247,4.526c0.202,1.627,1.025,3.077,2.319,4.084c1.088,0.847,2.39,1.294,3.766,1.294   c1.907,0,3.673-0.862,4.845-2.365l10.448-13.418l11.895,9.262c0.308,0.239,0.671,0.355,1.033,0.355   c0.501,0,0.997-0.224,1.329-0.649l23.452-30.116c-0.222,1.752-0.573,3.876-0.954,5.783c-0.063,0.372-0.57,3.692,1.165,5.748   c0.584,0.692,1.659,1.517,3.467,1.517c1.413,0,2.625-0.513,3.505-1.482c1.723-1.899,1.589-4.923,1.537-5.571v-12.98   c0-3.918,1.397-5.992,1.658-6.342l0.094-0.12C90.543,33.332,88.75,18.918,78.791,11.161z M21.503,89.237   c-0.909,1.167-2.715,1.396-3.888,0.483c-0.583-0.454-0.955-1.108-1.046-1.844c-0.091-0.733,0.108-1.459,0.563-2.042L27.58,72.416   l4.371,3.403L21.503,89.237z M80.13,41.226l-0.115,0.149c-0.55,0.738-2.344,3.523-2.344,8.378v13.052   c0,0.055,0.002,0.109,0.008,0.164c0.064,0.659-0.016,2.349-0.673,3.073c-0.159,0.176-0.419,0.379-1.012,0.379   c-0.621,0-0.812-0.224-0.893-0.319c-0.578-0.682-0.533-2.328-0.43-2.967c2.007-10.03,1.077-11.164,0.631-11.709   c-0.373-0.455-0.917-0.715-1.493-0.715c-1.065,0-1.732,0.857-1.952,1.138L47.243,83.459l-11.888-9.256   c-0.002-0.002-18.929-14.739-18.929-14.739l32.89-42.237c3.728-4.787,9.35-7.532,15.424-7.532c4.377,0,8.521,1.425,11.983,4.122   C85.218,20.434,86.747,32.728,80.13,41.226z"></path><path fill="#000000" d="M75.555,72.796c-2.764,0-5.012,2.248-5.012,5.012c0,2.765,2.248,5.013,5.012,5.013   c2.765,0,5.013-2.248,5.013-5.013C80.567,75.044,78.319,72.796,75.555,72.796z M75.555,79.455c-0.907,0-1.646-0.739-1.646-1.647   c0-0.907,0.739-1.646,1.646-1.646c0.908,0,1.647,0.739,1.647,1.646C77.202,78.716,76.463,79.455,75.555,79.455z"></path></g></svg>